<svg width="35" height="35" viewBox="0 0 35 35" fill="none" xmlns="http://www.w3.org/2000/svg">
<path fill-rule="evenodd" clip-rule="evenodd" d="M10.9376 1.45834C11.743 1.45834 12.3959 2.11126 12.3959 2.91668V4.37501H22.6042V2.91668C22.6042 2.11126 23.2572 1.45834 24.0626 1.45834C24.868 1.45834 25.5209 2.11126 25.5209 2.91668V4.41101C29.2056 4.77685 32.0834 7.88569 32.0834 11.6667V24.7917C32.0834 28.8188 28.8188 32.0833 24.7917 32.0833H10.2084C6.18134 32.0833 2.91675 28.8188 2.91675 24.7917V11.6667C2.91675 7.88569 5.79453 4.77685 9.47925 4.41101V2.91668C9.47925 2.11126 10.1322 1.45834 10.9376 1.45834ZM6.08236 10.2083H28.9178C28.3172 8.5091 26.6966 7.29168 24.7917 7.29168H10.2084C8.30351 7.29168 6.68296 8.5091 6.08236 10.2083ZM29.1667 13.125H5.83341V24.7917C5.83341 27.2079 7.79217 29.1667 10.2084 29.1667H24.7917C27.208 29.1667 29.1667 27.2079 29.1667 24.7917V13.125ZM8.75008 17.5C8.75008 16.6946 9.403 16.0417 10.2084 16.0417H24.7917C25.5972 16.0417 26.2501 16.6946 26.2501 17.5C26.2501 18.3054 25.5972 18.9583 24.7917 18.9583H10.2084C9.403 18.9583 8.75008 18.3054 8.75008 17.5Z" fill="white"/>
</svg>
