<svg width="70" height="150" viewBox="0 0 70 150" fill="none" xmlns="http://www.w3.org/2000/svg">
<path d="M10.0597 149.294L60.6579 118.683C61.1724 118.372 61.1629 117.884 60.6361 117.593L55.8433 114.95C55.3165 114.659 54.4719 114.676 53.9569 114.987L3.34507 145.599C2.83008 145.91 2.84006 146.398 3.36738 146.688L8.17332 149.333C8.70062 149.622 9.54526 149.605 10.0597 149.294Z" fill="#E0E0E0"/>
<path d="M56.9053 4.58546L11.2892 32.1823C10.0025 32.961 8.98403 34.8113 9.01482 36.3149L11.2572 145.812C11.288 147.317 12.3564 147.904 13.6431 147.126L59.2598 119.529C60.547 118.751 61.565 116.9 61.5342 115.397L59.2912 5.89915C59.2604 4.39504 58.192 3.80674 56.9053 4.58546Z" fill="#455A64"/>
<path d="M11.2892 32.1823L56.9053 4.58548C58.0564 3.88962 59.0294 4.2881 59.2456 5.455C59.0399 4.05525 58.0403 2.51813 56.8495 1.86261L54.9072 0.793167C53.5892 0.0677863 51.4773 0.111035 50.1907 0.889757L4.57506 28.4866C3.93145 28.8757 3.35543 29.533 2.94361 30.2808L9.65826 33.976C10.0695 33.2288 10.6461 32.5719 11.2892 32.1823Z" fill="#37474F"/>
<path d="M4.54311 142.117C4.57391 143.621 5.66675 145.428 6.98476 146.153L8.92764 147.222C10.1189 147.878 11.9537 147.899 13.2467 147.323C12.1444 147.768 11.2848 147.159 11.2572 145.812L9.01481 36.3149C8.9994 35.5628 9.24646 34.7242 9.65827 33.9765L2.94363 30.2813C2.53182 31.029 2.28531 31.8676 2.30071 32.6197L4.54311 142.117Z" fill="#263238"/>
<path d="M12.8575 46.7498L55.9653 20.6704C56.7381 20.2029 57.3789 20.5559 57.3974 21.4583L59.0573 102.483C59.0758 103.385 58.4643 104.495 57.6921 104.962L14.5842 131.042C13.812 131.509 13.1712 131.156 13.1527 130.254L11.4929 49.2299C11.4738 48.327 12.0852 47.2167 12.8575 46.7498Z" fill="white"/>
<path d="M34.1826 22.5379C33.73 22.8119 33.3718 23.4627 33.3826 23.9915C33.3935 24.5208 33.7698 24.7272 34.2218 24.4532C34.6749 24.1796 35.0326 23.5289 35.0218 22.9996C35.011 22.4708 34.6357 22.2638 34.1826 22.5379Z" fill="#37474F"/>
<path d="M36.2184 121.892C34.4307 122.974 33.0162 125.544 33.0589 127.633C33.1017 129.721 34.585 130.538 36.3733 129.456C38.1604 128.375 39.575 125.805 39.5322 123.716C39.4889 121.628 38.0055 120.811 36.2184 121.892Z" fill="#37474F"/>
<path d="M26.5198 31.1267C25.6147 31.6748 24.8982 32.9763 24.9199 34.0344C24.9415 35.0925 25.6931 35.5059 26.5988 34.9583C27.5045 34.4108 28.2204 33.1093 28.1987 32.0512C28.1771 30.9926 27.4255 30.5792 26.5198 31.1267Z" fill="#37474F"/>
<path d="M30.569 30.6848C30.5834 31.39 31.1172 31.6466 31.7602 31.2569L42.5461 24.7321C43.1891 24.3431 43.6994 23.4555 43.685 22.7503C43.67 22.045 43.1368 21.7885 42.4932 22.1781L31.7079 28.7029C31.0648 29.0925 30.5545 29.9796 30.569 30.6848Z" fill="#37474F"/>
<path d="M6.33718 50.3908C7.07884 50.7989 7.69405 51.816 7.71139 52.6628C7.72872 53.509 7.14162 53.8643 6.39996 53.4562C5.6583 53.0481 5.04254 52.031 5.02521 51.1847C5.00788 50.3384 5.59552 49.9826 6.33718 50.3908Z" fill="#37474F"/>
<path d="M6.54653 60.6157C7.28819 61.0238 7.9034 62.0409 7.92074 62.8877C7.93808 63.7345 7.35097 64.0892 6.60931 63.6811C5.86764 63.273 5.25189 62.2559 5.23455 61.4091C5.21776 60.5628 5.80488 60.2081 6.54653 60.6157Z" fill="#37474F"/>
<path d="M5.93131 50.6045C6.67297 51.0126 7.28873 52.0297 7.30606 52.8759C7.32339 53.7222 6.73629 54.078 5.99407 53.6693C5.25241 53.2612 4.6372 52.2441 4.61987 51.3979C4.60253 50.5511 5.19018 50.1958 5.93131 50.6045Z" fill="#455A64"/>
<path d="M6.14071 60.8294C6.88238 61.2375 7.49813 62.2546 7.51547 63.1014C7.5328 63.9477 6.9457 64.3029 6.20349 63.8948C5.46183 63.4867 4.84662 62.4696 4.82928 61.6228C4.81194 60.776 5.3996 60.4213 6.14071 60.8294Z" fill="#455A64"/>
<path d="M66.2981 23.8388C66.2796 22.9364 65.6387 22.584 64.866 23.0509L59.7063 26.1726L21.7581 49.1308C20.9859 49.5983 20.375 50.708 20.3935 51.6104L22.0533 132.635C22.0718 133.537 22.7126 133.89 23.4849 133.423L61.4466 110.456L66.5927 107.343C67.365 106.875 67.9764 105.765 67.9579 104.863L66.2981 23.8388Z" fill="white" stroke="#843434" stroke-miterlimit="10"/>
<path d="M22.8622 133.901C22.6808 133.905 22.5095 133.865 22.3552 133.78C21.9959 133.582 21.792 133.177 21.781 132.64L20.1212 51.6154C20.1006 50.6112 20.7577 49.4172 21.6171 48.8973L59.5654 25.939L59.8473 26.4051L21.8991 49.3633C21.214 49.7778 20.6494 50.8038 20.6658 51.6043L22.3256 132.629C22.3324 132.959 22.4387 133.204 22.6178 133.303C22.7969 133.402 23.0614 133.36 23.3439 133.189L61.3056 110.223L61.5875 110.688L23.6258 133.654C23.3632 133.814 23.1034 133.896 22.8622 133.901Z" fill="#843434" stroke="#843434" stroke-miterlimit="10"/>
<path d="M61.5876 110.689L61.3056 110.223L66.4518 107.11C67.1369 106.695 67.702 105.669 67.6857 104.869L66.0258 23.8449C66.0191 23.5149 65.9127 23.2692 65.7336 23.1704C65.5556 23.0722 65.2906 23.113 65.007 23.2844L59.8474 26.4061L59.5654 25.9401L64.7251 22.8184C65.1846 22.5404 65.6364 22.4952 65.9963 22.6932C66.355 22.8913 66.5594 23.2957 66.5704 23.8337L68.2303 104.858C68.2508 105.862 67.5937 107.056 66.7338 107.576L61.5876 110.689Z" fill="#843434" stroke="#843434" stroke-miterlimit="10"/>
<path d="M43.4571 43.1431C48.2863 40.2216 52.2944 42.4276 52.41 48.0705C52.5255 53.7134 48.7048 60.6556 43.8756 63.5777C39.0464 66.4992 35.0383 64.2931 34.9227 58.6502C34.8072 53.0074 38.6279 46.0646 43.4571 43.1431Z" fill="#843434"/>
<path d="M43.548 47.5841C45.1145 46.6362 46.4149 47.3521 46.4524 49.1824C46.4899 51.0133 45.2503 53.2658 43.6838 54.2132C42.1173 55.1611 40.8163 54.4452 40.7788 52.6143C40.7414 50.784 41.9815 48.532 43.548 47.5841Z" fill="#843434"/>
<path d="M49.3429 57.231C49.2813 54.2233 47.1445 53.0473 44.5711 54.6047L42.9621 55.578C40.3887 57.1349 38.3518 60.8355 38.4134 63.8432L38.4299 64.6524C39.9459 65.1215 41.8355 64.812 43.8755 63.5771C45.9732 62.3078 47.8804 60.2786 49.3572 57.9281L49.3429 57.231Z" fill="#843434"/>
<path opacity="0.7" d="M43.548 47.5841C45.1145 46.6362 46.4149 47.3521 46.4524 49.1824C46.4899 51.0133 45.2503 53.2658 43.6838 54.2132C42.1173 55.1611 40.8163 54.4452 40.7788 52.6143C40.7414 50.784 41.9815 48.532 43.548 47.5841Z" fill="white"/>
<path opacity="0.7" d="M49.3429 57.231C49.2813 54.2233 47.1445 53.0473 44.5711 54.6047L42.9621 55.578C40.3887 57.1349 38.3518 60.8355 38.4134 63.8432L38.4299 64.6524C39.9459 65.1215 41.8355 64.812 43.8755 63.5771C45.9732 62.3078 47.8804 60.2786 49.3572 57.9281L49.3429 57.231Z" fill="white"/>
<path d="M27.0095 76.3724L38.2609 69.5656C38.7759 69.2544 39.2035 69.4897 39.2158 70.0909L39.2235 70.4666C39.2358 71.0684 38.8287 71.8084 38.3132 72.1197L27.0618 78.9264C26.5474 79.2382 26.1198 79.0029 26.1075 78.4012L26.0998 78.0254C26.0875 77.4237 26.4951 76.6836 27.0095 76.3724Z" fill="#843434"/>
<path opacity="0.1" d="M27.0095 76.3724L38.2609 69.5656C38.7759 69.2544 39.2035 69.4897 39.2158 70.0909L39.2235 70.4666C39.2358 71.0684 38.8287 71.8084 38.3132 72.1197L27.0618 78.9264C26.5474 79.2382 26.1198 79.0029 26.1075 78.4012L26.0998 78.0254C26.0875 77.4237 26.4951 76.6836 27.0095 76.3724Z" fill="black"/>
<path d="M26.701 84.317L60.7434 63.722C61.0007 63.5664 61.2144 63.6835 61.2206 63.9846L61.3029 68.0042C61.3091 68.3048 61.1053 68.675 60.8481 68.8307L26.8056 89.4257C26.5484 89.5813 26.3346 89.4636 26.3284 89.163L26.2461 85.1435C26.24 84.8429 26.4437 84.4726 26.701 84.317Z" fill="#843434"/>
<path opacity="0.2" d="M26.701 84.317L60.7434 63.722C61.0007 63.5664 61.2144 63.6835 61.2206 63.9846L61.3029 68.0042C61.3091 68.3048 61.1053 68.675 60.8481 68.8307L26.8056 89.4257C26.5484 89.5813 26.3346 89.4636 26.3284 89.163L26.2461 85.1435C26.24 84.8429 26.4437 84.4726 26.701 84.317Z" fill="white"/>
<path d="M27.3757 94.2524L38.627 87.4457C39.142 87.1344 39.5696 87.3691 39.5819 87.9709L39.5896 88.3467C39.6019 88.9479 39.1949 89.6884 38.6793 89.9997L27.428 96.8064C26.9136 97.1182 26.4859 96.8824 26.4736 96.2812L26.4659 95.9054C26.4536 95.3037 26.8612 94.5642 27.3757 94.2524Z" fill="#843434"/>
<path opacity="0.1" d="M27.3757 94.2524L38.627 87.4457C39.142 87.1344 39.5696 87.3691 39.5819 87.9709L39.5896 88.3467C39.6019 88.9479 39.1949 89.6884 38.6793 89.9997L27.428 96.8064C26.9136 97.1182 26.4859 96.8824 26.4736 96.2812L26.4659 95.9054C26.4536 95.3037 26.8612 94.5642 27.3757 94.2524Z" fill="black"/>
<path d="M27.0671 102.197L61.1096 81.602C61.3668 81.4464 61.5806 81.5641 61.5868 81.8647L61.6691 85.8842C61.6752 86.1848 61.4714 86.555 61.2142 86.7107L27.1717 107.306C26.9145 107.461 26.7007 107.344 26.6946 107.043L26.6123 103.024C26.6061 102.723 26.8099 102.353 27.0671 102.197Z" fill="#843434"/>
<path opacity="0.2" d="M27.0671 102.197L61.1096 81.602C61.3668 81.4464 61.5806 81.5641 61.5868 81.8647L61.6691 85.8842C61.6752 86.1848 61.4714 86.555 61.2142 86.7107L27.1717 107.306C26.9145 107.461 26.7007 107.344 26.6946 107.043L26.6123 103.024C26.6061 102.723 26.8099 102.353 27.0671 102.197Z" fill="white"/>
<path d="M40.8578 104.198L54.2951 96.0688C54.8101 95.757 55.2371 95.9923 55.2494 96.5941L55.3356 100.801C55.3479 101.403 54.9409 102.143 54.4259 102.454L40.9886 110.584C40.4736 110.895 40.0466 110.66 40.0343 110.059L39.9481 105.851C39.9358 105.249 40.3428 104.509 40.8578 104.198Z" fill="#843434"/>
<path opacity="0.1" d="M40.8578 104.198L54.2951 96.0688C54.8101 95.757 55.2371 95.9923 55.2494 96.5941L55.3356 100.801C55.3479 101.403 54.9409 102.143 54.4259 102.454L40.9886 110.584C40.4736 110.895 40.0466 110.66 40.0343 110.059L39.9481 105.851C39.9358 105.249 40.3428 104.509 40.8578 104.198Z" fill="black"/>
</svg>
