<svg width="35" height="35" viewBox="0 0 35 35" fill="none" xmlns="http://www.w3.org/2000/svg">
<path fill-rule="evenodd" clip-rule="evenodd" d="M6.198 11.6667C6.198 7.63958 9.46259 4.375 13.4897 4.375H24.7917C28.8188 4.375 32.0834 7.63959 32.0834 11.6667V23.3333C32.0834 27.3604 28.8188 30.625 24.7917 30.625H4.37508C3.83915 30.625 3.3464 30.331 3.09181 29.8594C2.83722 29.3878 2.8618 28.8146 3.15585 28.3665L5.48071 24.8239C5.94868 24.1108 6.198 23.2765 6.198 22.4235V11.6667ZM13.4897 7.29167C11.0734 7.29167 9.11467 9.25042 9.11467 11.6667V22.4235C9.11467 23.8451 8.69913 25.2356 7.91918 26.4241L7.07643 27.7083H24.7917C27.208 27.7083 29.1668 25.7496 29.1668 23.3333V11.6667C29.1668 9.25042 27.208 7.29167 24.7917 7.29167H13.4897Z" fill="white"/>
<path d="M20.4167 17.5C20.4167 18.3054 19.7638 18.9583 18.9584 18.9583C18.153 18.9583 17.5001 18.3054 17.5001 17.5C17.5001 16.6946 18.153 16.0417 18.9584 16.0417C19.7638 16.0417 20.4167 16.6946 20.4167 17.5Z" fill="white"/>
<path d="M26.2501 17.5C26.2501 18.3054 25.5972 18.9583 24.7917 18.9583C23.9863 18.9583 23.3334 18.3054 23.3334 17.5C23.3334 16.6946 23.9863 16.0417 24.7917 16.0417C25.5972 16.0417 26.2501 16.6946 26.2501 17.5Z" fill="white"/>
<path d="M14.5834 17.5C14.5834 18.3054 13.9305 18.9583 13.1251 18.9583C12.3197 18.9583 11.6667 18.3054 11.6667 17.5C11.6667 16.6946 12.3197 16.0417 13.1251 16.0417C13.9305 16.0417 14.5834 16.6946 14.5834 17.5Z" fill="white"/>
</svg>
