<svg width="35" height="35" viewBox="0 0 35 35" fill="none" xmlns="http://www.w3.org/2000/svg">
<path d="M8.79322 28.2934C8.71364 29.0949 9.29885 29.8091 10.1003 29.8887C10.9018 29.9683 11.616 29.3831 11.6956 28.5816L8.79322 28.2934ZM23.3045 28.5816C23.3842 29.3831 24.0983 29.9683 24.8998 29.8887C25.7013 29.8091 26.2865 29.0949 26.2069 28.2934L23.3045 28.5816ZM29.1667 17.5C29.1667 23.9433 23.9434 29.1667 17.5001 29.1667V32.0833C25.5542 32.0833 32.0834 25.5541 32.0834 17.5H29.1667ZM17.5001 29.1667C11.0568 29.1667 5.83341 23.9433 5.83341 17.5H2.91675C2.91675 25.5541 9.44592 32.0833 17.5001 32.0833V29.1667ZM5.83341 17.5C5.83341 11.0567 11.0568 5.83332 17.5001 5.83332V2.91666C9.44592 2.91666 2.91675 9.44583 2.91675 17.5H5.83341ZM17.5001 5.83332C23.9434 5.83332 29.1667 11.0567 29.1667 17.5H32.0834C32.0834 9.44583 25.5542 2.91666 17.5001 2.91666V5.83332ZM18.9584 14.5833C18.9584 15.3888 18.3055 16.0417 17.5001 16.0417V18.9583C19.9164 18.9583 21.8751 16.9996 21.8751 14.5833H18.9584ZM17.5001 16.0417C16.6946 16.0417 16.0417 15.3888 16.0417 14.5833H13.1251C13.1251 16.9996 15.0838 18.9583 17.5001 18.9583V16.0417ZM16.0417 14.5833C16.0417 13.7779 16.6946 13.125 17.5001 13.125V10.2083C15.0838 10.2083 13.1251 12.1671 13.1251 14.5833H16.0417ZM17.5001 13.125C18.3055 13.125 18.9584 13.7779 18.9584 14.5833H21.8751C21.8751 12.1671 19.9164 10.2083 17.5001 10.2083V13.125ZM11.6956 28.5816C11.9881 25.6353 14.4762 23.3333 17.5001 23.3333V20.4167C12.962 20.4167 9.23238 23.8701 8.79322 28.2934L11.6956 28.5816ZM17.5001 23.3333C20.5239 23.3333 23.012 25.6353 23.3045 28.5816L26.2069 28.2934C25.7678 23.8701 22.0381 20.4167 17.5001 20.4167V23.3333Z" fill="white"/>
</svg>
