<svg width="104" height="135" viewBox="0 0 104 135" fill="none" xmlns="http://www.w3.org/2000/svg">
<path d="M98.481 134.546H5.11039L0 4.04974H93.3706L98.481 134.546Z" fill="#595555"/>
<path d="M103.141 130.496H9.77048L4.65942 0H98.0301L103.141 130.496Z" fill="white"/>
<path d="M71.8656 53.7068C81.8637 44.8693 81.4394 30.4176 70.9181 21.4279C60.3967 12.4382 43.7625 12.3148 33.7644 21.1523C23.7664 29.9898 24.1906 44.4415 34.712 53.4312C45.2333 62.4209 61.8676 62.5443 71.8656 53.7068Z" fill="#843434"/>
<path d="M74.4868 37.4259C74.6144 40.6791 73.7846 43.7334 72.219 46.3991C68.7925 52.2706 61.7891 56.2638 53.5481 56.2638C45.3078 56.2638 37.9914 52.2706 34.1047 46.3991C32.3306 43.734 31.2615 40.6797 31.1339 37.4259C30.7262 27.0202 40.0995 18.5881 52.0726 18.5881C64.0457 18.5881 74.0791 27.0202 74.4868 37.4259Z" fill="white"/>
<path opacity="0.6" d="M72.2183 46.3991C68.7918 52.2706 61.7884 56.2638 53.5474 56.2638C45.3072 56.2638 37.9907 52.2706 34.104 46.3991C39.4373 43.2311 45.9134 41.3814 52.9642 41.3814C60.0163 41.3814 66.6371 43.2306 72.2183 46.3991Z" fill="#843434"/>
<path opacity="0.6" d="M59.5662 36.9654C63.2419 33.7164 63.086 28.4033 59.2179 25.0983C55.3497 21.7933 49.2343 21.748 45.5585 24.997C41.8828 28.246 42.0388 33.5591 45.9069 36.8641C49.775 40.1691 55.8905 40.2145 59.5662 36.9654Z" fill="#843434"/>
<path d="M84.3861 83.2388H24.8235L24.4204 72.953H83.9836L84.3861 83.2388Z" fill="#843434"/>
<path d="M85.1067 101.623H25.5435L25.1404 91.3377H84.7036L85.1067 101.623Z" fill="#843434"/>
<path d="M62.118 92.7514L47.7646 94.4474C47.1748 94.5172 46.7868 94.984 46.8986 95.48L48.7831 103.839C48.8955 104.338 49.4683 104.688 50.0581 104.619L64.4115 102.923C65.0013 102.853 65.3899 102.39 65.2775 101.89L63.393 93.5314C63.2812 93.0349 62.7078 92.6817 62.118 92.7514ZM57.9939 101.219L55.3953 101.527L55.1336 98.8292C54.5806 98.6172 54.1802 98.1909 54.0671 97.6886C53.883 96.8715 54.5182 96.1143 55.4828 96C56.4441 95.8863 57.3785 96.4583 57.5632 97.2755C57.6763 97.7778 57.4837 98.2738 57.053 98.6023L57.9939 101.219Z" fill="#843434"/>
<path d="M60.7015 92.3034C60.1768 92.3651 59.6705 92.0554 59.5705 91.6114L59.3858 90.7931C58.8781 88.5411 56.4005 86.8411 53.7184 87.044C50.8515 87.2611 48.9296 89.4611 49.4661 91.8406L49.6778 92.7806C49.7778 93.2246 49.4339 93.6349 48.9092 93.6966C48.3845 93.7583 47.8782 93.4486 47.7782 93.0046L47.5987 92.2069C46.8912 89.0686 49.1643 86.0514 52.8419 85.4954C56.7082 84.9102 60.5207 87.1765 61.2578 90.4469L61.4695 91.3869C61.5694 91.8309 61.2255 92.2411 60.7015 92.3034Z" fill="#843434"/>
<path d="M75.2746 116.026H36.5034L36.2417 109.331H75.0122L75.2746 116.026Z" fill="#843434"/>
<path d="M56.5683 78.0959C56.6091 79.1348 55.6727 79.9771 54.4773 79.9771C53.2819 79.9771 52.2798 79.1348 52.2391 78.0959C52.1983 77.057 53.1346 76.2148 54.33 76.2148C55.5255 76.2148 56.5275 77.057 56.5683 78.0959Z" fill="white"/>
<path d="M47.249 78.0959C47.2897 79.1348 46.3534 79.9771 45.158 79.9771C43.9626 79.9771 42.9605 79.1348 42.9197 78.0959C42.879 77.057 43.8153 76.2148 45.0107 76.2148C46.2061 76.2148 47.2082 77.057 47.249 78.0959Z" fill="white"/>
<path d="M37.9296 78.0959C37.9704 79.1348 37.0341 79.9771 35.8387 79.9771C34.6433 79.9771 33.6412 79.1348 33.6004 78.0959C33.5596 77.057 34.496 76.2148 35.6914 76.2148C36.8868 76.2148 37.8889 77.057 37.9296 78.0959Z" fill="white"/>
<path d="M65.8874 78.0959C65.9282 79.1348 64.9918 79.9771 63.7964 79.9771C62.601 79.9771 61.5989 79.1348 61.5582 78.0959C61.5174 77.057 62.4537 76.2148 63.6491 76.2148C64.8445 76.2148 65.8466 77.057 65.8874 78.0959Z" fill="white"/>
<path d="M75.2067 78.0959C75.2475 79.1348 74.3112 79.9771 73.1158 79.9771C71.9204 79.9771 70.9183 79.1348 70.8775 78.0959C70.8367 77.057 71.7731 76.2148 72.9685 76.2148C74.1639 76.2148 75.1666 77.057 75.2067 78.0959Z" fill="white"/>
</svg>
