<svg width="390" height="268" viewBox="0 0 390 268" fill="none" xmlns="http://www.w3.org/2000/svg">
<g clip-path="url(#clip0_3_540)">
<path d="M390 0H-8V268H390V0Z" fill="url(#paint0_linear_3_540)"/>
<mask id="mask0_3_540" style="mask-type:luminance" maskUnits="userSpaceOnUse" x="-8" y="-1" width="398" height="269">
<path d="M390 -0.536011H-8V267.464H390V-0.536011Z" fill="white"/>
</mask>
<g mask="url(#mask0_3_540)">
<path d="M185.822 77.3523C186.664 75.501 180.913 73.0959 179.783 72.881C179.019 72.7352 174.713 72.3107 175.25 74.0012C174.331 71.1208 170.402 70.6936 167.818 70.4829C164.697 70.2289 161.498 70.8077 158.704 72.2549C156.537 73.3779 154.591 74.9784 152.263 75.6998C147.987 77.0237 143.329 75.1392 138.921 75.9019C135.368 76.5167 132.305 78.8574 128.859 79.6185C124.818 80.511 120.691 79.4089 116.652 80.8658C113.662 81.9442 111.021 84.0357 107.885 84.539C105.379 84.9415 102.836 84.2796 100.3 84.1847C97.7629 84.0898 94.8915 84.785 93.6184 87.003C94.2043 85.9819 108.583 86.6042 110.492 86.4756C125.702 85.4545 141.568 86.2059 157.021 86.11C181.722 85.9572 206.443 86.1931 231.114 84.7652C233.36 84.6349 236.174 84.0255 236.634 81.8006C228.452 79.1683 219.655 78.509 211.179 79.8929C209.971 80.0902 208.729 80.3271 207.537 80.0473C205.236 79.5059 203.793 77.2451 201.813 75.9426C199.251 74.2569 195.98 74.2837 192.923 74.3684C190.214 74.4429 186.953 74.8647 185.822 77.3523Z" fill="white"/>
<path d="M185.822 77.3523C186.664 75.501 180.913 73.0959 179.783 72.881C179.019 72.7352 174.713 72.3107 175.25 74.0012C174.331 71.1208 170.402 70.6936 167.818 70.4829C164.697 70.2289 161.498 70.8077 158.704 72.2549C156.537 73.3779 154.591 74.9784 152.263 75.6998C147.987 77.0237 143.329 75.1392 138.921 75.9019C135.368 76.5167 132.305 78.8574 128.859 79.6185C124.818 80.511 120.691 79.4089 116.652 80.8658C113.662 81.9442 111.021 84.0357 107.885 84.539C105.379 84.9415 102.836 84.2796 100.3 84.1847C97.7629 84.0898 94.8915 84.785 93.6184 87.003C94.2043 85.9819 108.583 86.6042 110.492 86.4756C125.702 85.4545 141.568 86.2059 157.021 86.11C181.722 85.9572 206.443 86.1931 231.114 84.7652C233.36 84.6349 236.174 84.0255 236.634 81.8006C228.452 79.1683 219.655 78.509 211.179 79.8929C209.971 80.0902 208.729 80.3271 207.537 80.0473C205.236 79.5059 203.793 77.2451 201.813 75.9426C199.251 74.2569 195.98 74.2837 192.923 74.3684C190.214 74.4429 186.953 74.8647 185.822 77.3523Z" fill="white"/>
<mask id="mask1_3_540" style="mask-type:luminance" maskUnits="userSpaceOnUse" x="93" y="70" width="144" height="18">
<path d="M185.822 77.3523C186.664 75.501 180.913 73.0959 179.783 72.881C179.019 72.7352 174.713 72.3107 175.25 74.0012C174.331 71.1208 170.402 70.6936 167.818 70.4829C164.697 70.2289 161.498 70.8077 158.704 72.2549C156.537 73.3779 154.591 74.9784 152.263 75.6998C147.987 77.0237 143.329 75.1392 138.921 75.9019C135.368 76.5167 132.305 78.8574 128.859 79.6185C124.818 80.511 120.691 79.4089 116.652 80.8658C113.662 81.9442 111.021 84.0357 107.885 84.539C105.379 84.9415 102.836 84.2796 100.3 84.1847C97.7629 84.0898 94.8915 84.785 93.6184 87.003C94.2043 85.9819 108.583 86.6042 110.492 86.4756C125.702 85.4545 141.568 86.2059 157.021 86.11C181.722 85.9572 206.443 86.1931 231.114 84.7652C233.36 84.6349 236.174 84.0255 236.634 81.8006C228.452 79.1683 219.655 78.509 211.179 79.8929C209.971 80.0902 208.729 80.3271 207.537 80.0473C205.236 79.5059 203.793 77.2451 201.813 75.9426C199.251 74.2569 195.98 74.2837 192.923 74.3684C190.214 74.4429 186.953 74.8647 185.822 77.3523Z" fill="white"/>
</mask>
<g mask="url(#mask1_3_540)">
<path d="M173.539 91.5901C163.761 92.8298 153.983 94.3296 144.115 94.5938C139.341 94.7219 134.618 94.4711 129.875 93.9254C126.075 93.488 123.709 91.1093 120.257 89.7661C116.643 88.3596 111.705 88.4271 107.877 88.5317C103.756 88.6442 99.5805 89.4043 95.55 88.53C95.843 87.3825 97.2354 86.9907 98.3997 86.8411C100.275 86.6004 102.162 86.4654 104.047 86.3308C109.1 86.3308 114.26 85.6008 119.302 85.2406C121.457 85.0868 123.3 85.3253 125.368 85.4234C127.69 85.5333 130.05 84.0888 132.064 83.1106C134.537 81.9094 137.485 80.9135 139.946 82.1399C140.827 82.5788 141.563 83.2724 142.432 83.7355C145.751 85.5038 147.467 83.3475 150.277 82.0171C150.971 81.688 151.739 81.5487 152.5 81.4538C153.036 81.3868 153.582 81.3407 154.113 81.4398C154.627 81.5358 155.106 81.7636 155.599 81.9367C159.884 83.4423 163.216 79.6834 167.496 79.7209C171.025 79.752 174.412 81.0695 177.616 82.5644C178.429 82.9439 179.271 83.3443 180.166 83.3448C181.058 83.3448 181.895 82.9492 182.727 82.6255C187.087 80.9274 192.135 81.122 196.353 83.1513C197.05 83.4863 197.781 83.8797 198.547 83.7811C199.254 83.69 199.833 83.1969 200.45 82.8345C202.586 81.5781 205.244 81.866 207.695 82.1929C214.103 83.0473 220.511 83.9022 226.92 84.7566C229.617 85.1163 232.503 85.5622 234.492 87.4377C214.117 87.6398 193.756 89.0275 173.539 91.5901Z" fill="white"/>
</g>
</g>
<mask id="mask2_3_540" style="mask-type:luminance" maskUnits="userSpaceOnUse" x="-8" y="-1" width="398" height="269">
<path d="M390 -0.536011H-8V267.464H390V-0.536011Z" fill="white"/>
</mask>
<g mask="url(#mask2_3_540)">
<path opacity="0.41" d="M379.524 104.932C385.48 106.049 391.571 105.441 397.566 106.125C401.039 106.521 410.615 107.861 411.506 112.427C411.704 113.442 410.992 114.46 410.084 114.938C409.176 115.416 408.116 115.476 407.093 115.512C389.252 116.14 371.297 115.782 353.387 115.782C323.663 115.782 293.94 115.782 264.216 115.782C238.78 115.782 213.344 115.782 187.908 115.782C185.99 115.782 168.345 116.737 168.909 113.753C169.718 109.475 197.346 108.37 201.499 108.311C213.514 108.143 226.226 109.468 236.909 103.912C244.301 100.069 251.073 92.9236 259.304 94.1082C262.075 94.507 265.98 95.2386 266.741 92.5179C267.007 91.5654 266.668 90.5609 266.589 89.5742C266.221 85.001 271.195 81.986 275.563 80.7286C280.287 79.3687 285.202 78.688 290.114 78.7143C293.842 78.7341 297.724 79.2144 300.849 81.2699C303.972 83.3255 306.094 87.3181 305.014 90.9227C314.048 83.0714 328.259 79.1597 337.74 86.4525C340.455 88.5408 342.626 91.5697 342.992 94.9969C343.358 98.4241 341.571 102.172 338.387 103.413C344.273 99.451 351.867 99.0303 358.858 100.113C365.849 101.196 372.57 103.628 379.524 104.932Z" fill="white"/>
<path opacity="0.43" d="M169.914 112.561C169.345 112.928 168.99 113.324 168.909 113.753C168.345 116.737 185.991 115.783 187.908 115.783H353.387C371.297 115.783 389.252 116.141 407.093 115.512C408.116 115.476 409.176 115.416 410.084 114.938C410.952 114.48 411.632 113.53 411.517 112.56C411.522 112.598 365.793 112.288 361.812 112.452C363.252 108.8 359.819 104.703 355.994 103.974C352.17 103.244 348.322 104.812 344.739 106.346C345.626 99.9506 339.715 94.1677 333.404 93.1278C327.094 92.0875 320.751 94.5783 315.077 97.5541C308.716 100.89 300.113 110.456 292.762 109.644C292.067 106.773 290.714 103.332 287.888 101.996C286.473 101.327 284.858 101.283 283.296 101.25C277.489 101.128 271.49 101.04 266.114 103.261C262.118 104.913 258.723 107.741 254.944 109.85C246.836 114.374 235.148 112.561 226.194 112.561C216.296 112.561 206.397 112.561 196.498 112.561C189.854 112.561 183.211 112.561 176.567 112.561C175.233 112.56 171.096 111.799 169.914 112.561Z" fill="white"/>
</g>
<mask id="mask3_3_540" style="mask-type:luminance" maskUnits="userSpaceOnUse" x="-8" y="-1" width="398" height="269">
<path d="M390 -0.536011H-8V267.464H390V-0.536011Z" fill="white"/>
</mask>
<g mask="url(#mask3_3_540)">
<path d="M454.203 146.163C468.947 146.107 493.815 164.086 496.469 179.165C501.419 207.289 443.982 197.831 429.143 197.831C405.416 197.831 381.689 197.831 357.963 197.831C349.365 197.831 340.767 197.857 332.169 197.9C257.062 198.284 182.055 198.635 106.942 198.635C98.3445 199.606 89.6729 199.929 81.0756 200.9C79.3127 201.099 77.4676 201.289 75.8151 200.636C66.1622 196.825 77.2511 185.58 83.0114 185.061C88.8971 184.532 94.5874 186.967 100.33 188.372C102.061 188.795 103.927 189.118 105.584 188.46C108.794 187.187 109.641 183.097 111.626 180.249C115.604 174.539 124.278 174.338 130.428 177.525C136.578 180.711 141.047 186.343 146.082 191.126C146.997 191.996 148.117 192.901 149.361 192.717C150.372 192.567 151.126 191.74 151.864 191.028C155.903 187.13 161.993 185.543 167.394 186.979C171.057 187.953 174.255 190.16 177.656 191.843C205.141 205.442 231.831 183.047 234.796 155.562C235.309 150.804 235.184 145.692 237.762 141.676C239.588 138.83 242.544 136.94 245.527 135.383C255.098 130.385 265.158 128.941 275.516 127.966C272.009 128.296 272 112.759 272.667 110.598C274.34 105.18 278.589 101.477 283.376 98.8432C289.12 95.6835 317.653 88.8795 321.055 97.3386C318.855 91.8688 324.611 85.2449 328.412 80.7591C332.213 76.2733 337.813 73.6555 343.528 72.4146C361.258 68.5651 380.984 78.3123 388.857 94.813C402.736 91.8741 417.818 95.3538 429.057 104.087C440.296 112.822 447.492 126.654 448.237 140.958C448.311 142.372 448.378 143.928 449.335 144.963C450.512 146.234 452.48 146.169 454.203 146.163Z" fill="white"/>
<mask id="mask4_3_540" style="mask-type:luminance" maskUnits="userSpaceOnUse" x="72" y="71" width="425" height="131">
<path d="M454.203 146.163C468.947 146.107 493.815 164.086 496.469 179.165C501.419 207.289 443.982 197.831 429.143 197.831C405.416 197.831 381.689 197.831 357.963 197.831C349.365 197.831 340.767 197.857 332.169 197.9C257.062 198.284 182.055 198.635 106.942 198.635C98.3445 199.606 89.6729 199.929 81.0756 200.9C79.3127 201.099 77.4676 201.289 75.8151 200.636C66.1622 196.825 77.2511 185.58 83.0114 185.061C88.8971 184.532 94.5874 186.967 100.33 188.372C102.061 188.795 103.927 189.118 105.584 188.46C108.794 187.187 109.641 183.097 111.626 180.249C115.604 174.539 124.278 174.338 130.428 177.525C136.578 180.711 141.047 186.343 146.082 191.126C146.997 191.996 148.117 192.901 149.361 192.717C150.372 192.567 151.126 191.74 151.864 191.028C155.903 187.13 161.993 185.543 167.394 186.979C171.057 187.953 174.255 190.16 177.656 191.843C205.141 205.442 231.831 183.047 234.796 155.562C235.309 150.804 235.184 145.692 237.762 141.676C239.588 138.83 242.544 136.94 245.527 135.383C255.098 130.385 265.158 128.941 275.516 127.966C272.009 128.296 272 112.759 272.667 110.598C274.34 105.18 278.589 101.477 283.376 98.8432C289.12 95.6835 317.653 88.8795 321.055 97.3386C318.855 91.8688 324.611 85.2449 328.412 80.7591C332.213 76.2733 337.813 73.6555 343.528 72.4146C361.258 68.5651 380.984 78.3123 388.857 94.813C402.736 91.8741 417.818 95.3538 429.057 104.087C440.296 112.822 447.492 126.654 448.237 140.958C448.311 142.372 448.378 143.928 449.335 144.963C450.512 146.234 452.48 146.169 454.203 146.163Z" fill="white"/>
</mask>
<g mask="url(#mask4_3_540)">
<path d="M484.323 184.281C499.201 186.336 500.604 192.214 505.52 204.669C454.805 213.022 403.04 202.049 351.663 202.98C306.817 203.793 262.886 207.614 218.202 209.887C198.382 210.895 178.731 214.161 158.921 215.343C133.668 216.849 108.218 214.943 83.4609 209.692C78.7767 208.698 72.8688 205.732 73.9424 201.024C76.0703 191.693 89.1157 188.885 96.8305 190.415C103.563 191.751 110.574 194.354 117.065 192.107C119.302 191.333 121.344 190.007 123.646 189.46C132.682 187.315 140.967 197.638 150.135 196.168C152.221 195.833 154.158 194.897 156.183 194.289C162.875 192.278 170.046 193.935 176.831 195.599C189.005 198.673 202.521 200.095 215.062 199.926C226.259 199.776 233.994 192.435 243.213 186.27C248.475 182.752 253.831 179.189 259.867 177.327C271.087 173.867 283.226 176.665 294.878 175.289C307.907 173.751 318.575 166.176 331.689 165.73C345.881 165.248 359.861 166.299 371.889 174.756C373.451 175.854 375.166 177.109 377.052 176.861C378.111 176.722 379.045 176.118 379.958 175.559C396.757 165.283 419.816 166.738 435.217 179.048C438.447 181.63 441.552 184.732 445.574 185.628C448.712 186.326 451.962 185.567 455.121 184.976C464.736 183.179 474.635 182.942 484.323 184.281Z" fill="white"/>
</g>
<path d="M315.97 146.949C317.735 149.444 320.774 152.792 324.222 152.614C325.371 152.554 326.418 151.968 327.451 151.456C331.776 149.312 336.536 148.762 341.312 149.143C344.162 149.37 348.573 151.761 349.843 154.511C350.094 155.055 350.274 155.675 350.109 156.251C349.787 157.37 348.407 157.735 347.254 157.782C344.536 157.892 341.845 157.294 339.14 157C334.679 156.516 329.709 156.697 325.418 158.144C321.293 159.534 316.923 160.314 312.784 161.849C306.356 164.235 300.387 168.173 293.596 169.07C290.436 169.489 287.462 168.485 284.444 167.711C281.56 166.972 278.876 167.07 275.975 166.71C270.479 166.029 265.372 166.804 260.411 169.295C258.354 170.327 256.918 171.294 254.603 171.411C252.178 171.533 248.844 170.453 251.267 167.504C253.556 164.718 256.374 162.216 259.526 160.479C265.959 156.937 273.914 156.345 280.791 158.898C281.377 159.116 281.983 159.359 282.605 159.305C283.675 159.21 284.463 158.285 285.107 157.417C287.441 154.277 289.559 150.919 292.451 148.296C295.987 145.089 300.612 143.13 305.354 142.83C309.306 142.58 313.667 143.694 315.97 146.949Z" fill="white"/>
<path d="M407.945 155.216C409.7 156.132 412.102 158.184 412.685 160.188C413.372 162.549 411.687 164.443 409.318 164.189C408.275 164.077 407.298 163.64 406.341 163.208C401.454 161.003 394.829 162.652 390.01 164.629C387.401 165.7 384.722 167.152 381.94 166.714C381.352 166.621 380.738 166.418 380.373 165.943C379.599 164.934 380.379 163.482 381.232 162.54C385.754 157.548 392.495 155.152 399.14 154.293C402.114 153.909 405.282 153.828 407.945 155.216Z" fill="white"/>
</g>
<mask id="mask5_3_540" style="mask-type:luminance" maskUnits="userSpaceOnUse" x="-8" y="-1" width="398" height="269">
<path d="M390 -0.536011H-8V267.464H390V-0.536011Z" fill="white"/>
</mask>
<g mask="url(#mask5_3_540)">
<path d="M297.183 56.5239C294.46 54.6452 290.861 54.128 287.727 55.1646C288.756 53.8005 287.129 51.7696 285.434 51.6747C283.739 51.5798 282.21 52.5923 280.657 53.2848C274.778 55.9059 262.614 53.1176 255.922 53.1176C244.123 53.1444 232.326 53.6852 220.527 53.712C210.68 53.7345 200.772 53.7624 191.083 55.5355C194.288 51.2453 190.422 44.7458 185.417 42.9186C180.413 41.0914 174.894 42.1489 169.574 42.0272C157.428 41.7496 145.74 40.3345 133.286 40.5307C118.865 40.7574 104.445 40.9842 90.0237 41.2109C84.6767 41.295 78.946 41.2693 74.525 38.2297C72.1429 36.5916 70.3726 34.2204 68.3974 32.101C58.2272 21.1897 42.4537 17.1054 27.638 17.9131C12.8223 18.7209 -1.39002 23.8225 -15.3593 28.8727C-15.4824 39.5691 -13.9546 48.7862 -13.7408 59.481C-12.9766 59.0382 -12.2841 58.3838 -11.5199 57.9411C-6.87711 55.2509 7.14788 57.9411 12.3007 57.9411C31.808 57.9411 51.3147 57.9411 70.822 57.9411C146.426 57.9411 221.67 57.1371 297.307 57.1371C297.313 57.1371 297.318 57.1371 297.324 57.1371" fill="white"/>
<mask id="mask6_3_540" style="mask-type:luminance" maskUnits="userSpaceOnUse" x="-16" y="17" width="314" height="43">
<path d="M297.183 56.5239C294.46 54.6452 290.861 54.128 287.727 55.1646C288.756 53.8005 287.129 51.7696 285.434 51.6747C283.739 51.5798 282.21 52.5923 280.657 53.2848C274.778 55.9059 262.614 53.1176 255.922 53.1176C244.123 53.1444 232.326 53.6852 220.527 53.712C210.68 53.7345 200.772 53.7624 191.083 55.5355C194.288 51.2453 190.422 44.7458 185.417 42.9186C180.413 41.0914 174.894 42.1489 169.574 42.0272C157.428 41.7496 145.74 40.3345 133.286 40.5307C118.865 40.7574 104.445 40.9842 90.0237 41.2109C84.6767 41.295 78.946 41.2693 74.525 38.2297C72.1429 36.5916 70.3726 34.2204 68.3974 32.101C58.2272 21.1897 42.4537 17.1054 27.638 17.9131C12.8223 18.7209 -1.39002 23.8225 -15.3593 28.8727C-15.4824 39.5691 -13.9546 48.7862 -13.7408 59.481C-12.9766 59.0382 -12.2841 58.3838 -11.5199 57.9411C-6.87711 55.2509 7.14788 57.9411 12.3007 57.9411C31.808 57.9411 51.3147 57.9411 70.822 57.9411C146.426 57.9411 221.67 57.1371 297.307 57.1371C297.313 57.1371 297.318 57.1371 297.324 57.1371" fill="white"/>
</mask>
<g mask="url(#mask6_3_540)">
<path d="M183.068 64.8587H-17.5796C-20.58 64.8587 -23.0354 62.3791 -23.0354 59.3481V56.7726C-23.0354 53.742 -20.5805 51.262 -17.5796 51.262H183.068C186.069 51.262 188.524 53.7415 188.524 56.7726V59.3481C188.523 62.3791 186.069 64.8587 183.068 64.8587Z" fill="white"/>
</g>
<mask id="mask7_3_540" style="mask-type:luminance" maskUnits="userSpaceOnUse" x="-16" y="17" width="314" height="43">
<path d="M297.183 56.5239C294.46 54.6452 290.861 54.128 287.727 55.1646C288.756 53.8005 287.129 51.7696 285.434 51.6747C283.739 51.5798 282.21 52.5923 280.657 53.2848C274.778 55.9059 262.614 53.1176 255.922 53.1176C244.123 53.1444 232.326 53.6852 220.527 53.712C210.68 53.7345 200.772 53.7624 191.083 55.5355C194.288 51.2453 190.422 44.7458 185.417 42.9186C180.413 41.0914 174.894 42.1489 169.574 42.0272C157.428 41.7496 145.74 40.3345 133.286 40.5307C118.865 40.7574 104.445 40.9842 90.0237 41.2109C84.6767 41.295 78.946 41.2693 74.525 38.2297C72.1429 36.5916 70.3726 34.2204 68.3974 32.101C58.2272 21.1897 42.4537 17.1054 27.638 17.9131C12.8223 18.7209 -1.39002 23.8225 -15.3593 28.8727C-15.4824 39.5691 -13.9546 48.7862 -13.7408 59.481C-12.9766 59.0382 -12.2841 58.3838 -11.5199 57.9411C-6.87711 55.2509 7.14788 57.9411 12.3007 57.9411C31.808 57.9411 51.3147 57.9411 70.822 57.9411C146.426 57.9411 221.67 57.1371 297.307 57.1371C297.313 57.1371 297.318 57.1371 297.324 57.1371" fill="white"/>
</mask>
<g mask="url(#mask7_3_540)">
<path d="M296.735 60.568H181.846C180.606 60.568 179.591 59.5432 179.591 58.29C179.591 57.0368 180.606 56.012 181.846 56.012H296.735C297.976 56.012 298.991 57.0368 298.991 58.29C298.991 59.5432 297.976 60.568 296.735 60.568Z" fill="white"/>
</g>
<mask id="mask8_3_540" style="mask-type:luminance" maskUnits="userSpaceOnUse" x="-16" y="17" width="314" height="43">
<path d="M297.183 56.5239C294.46 54.6452 290.861 54.128 287.727 55.1646C288.756 53.8005 287.129 51.7696 285.434 51.6747C283.739 51.5798 282.21 52.5923 280.657 53.2848C274.778 55.9059 262.614 53.1176 255.922 53.1176C244.123 53.1444 232.326 53.6852 220.527 53.712C210.68 53.7345 200.772 53.7624 191.083 55.5355C194.288 51.2453 190.422 44.7458 185.417 42.9186C180.413 41.0914 174.894 42.1489 169.574 42.0272C157.428 41.7496 145.74 40.3345 133.286 40.5307C118.865 40.7574 104.445 40.9842 90.0237 41.2109C84.6767 41.295 78.946 41.2693 74.525 38.2297C72.1429 36.5916 70.3726 34.2204 68.3974 32.101C58.2272 21.1897 42.4537 17.1054 27.638 17.9131C12.8223 18.7209 -1.39002 23.8225 -15.3593 28.8727C-15.4824 39.5691 -13.9546 48.7862 -13.7408 59.481C-12.9766 59.0382 -12.2841 58.3838 -11.5199 57.9411C-6.87711 55.2509 7.14788 57.9411 12.3007 57.9411C31.808 57.9411 51.3147 57.9411 70.822 57.9411C146.426 57.9411 221.67 57.1371 297.307 57.1371C297.313 57.1371 297.318 57.1371 297.324 57.1371" fill="white"/>
</mask>
<g mask="url(#mask8_3_540)">
<path d="M64.0736 47.5255C57.0502 45.1891 49.6755 42.932 42.4335 44.3347C41.0591 44.6011 39.578 45.0953 38.8685 46.3136C34.059 39.8457 25.3015 37.2236 17.3701 38.3412C11.0806 39.2277 4.95463 42.4346 1.18584 47.5255H64.0736Z" fill="white"/>
</g>
</g>
<mask id="mask9_3_540" style="mask-type:luminance" maskUnits="userSpaceOnUse" x="-8" y="-1" width="398" height="269">
<path d="M390 -0.536011H-8V267.464H390V-0.536011Z" fill="white"/>
</mask>
<g mask="url(#mask9_3_540)">
<path d="M259.573 40.4466C260.665 37.7875 262.275 34.8904 265.048 34.3871C269.094 33.6517 272.03 38.1016 276.105 37.6738C279.681 37.2986 281.819 33.6908 284.943 32.2677C291.77 29.1589 301.394 27.812 308.76 26.7475C313.703 26.033 318.777 25.4739 323.275 23.286C326.515 21.7101 329.343 19.3378 332.652 17.9153C335.961 16.4927 340.157 16.2237 342.843 18.6389C345.079 20.6483 346.738 24.5102 349.645 23.7914C350.709 23.5288 351.502 22.6551 352.212 21.8131C356.8 16.3748 361.345 10.0597 368.201 8.30211C373.046 7.0602 378.133 8.38144 382.958 9.69785C385.616 10.4231 388.274 11.1483 390.932 11.8729C398.631 13.9735 416.002 35.2131 404.329 40.81C399.25 43.245 386.521 40.736 380.923 40.736C357.313 40.736 333.703 40.736 310.094 40.736C293.214 40.736 276.335 40.736 259.456 40.736C259.494 40.6401 259.533 40.5436 259.573 40.4466Z" fill="white"/>
<path d="M280.424 38.0345C279.455 38.2516 278.458 38.4012 277.419 38.4371C269.455 38.7137 263.269 31.4423 259.573 40.4465C259.533 40.543 259.495 40.6395 259.456 40.736H380.923C386.522 40.736 399.25 43.245 404.329 40.81C406.328 39.8516 407.668 38.2377 408.112 36.0514C402.31 34.4176 397.508 29.6633 391.199 28.1748C385.025 26.7185 378.483 26.7839 372.375 28.5361C367.195 30.0224 362.371 32.621 357.163 34.0049C351.954 35.3889 345.95 35.3663 341.701 32.0249C340.119 30.7814 338.86 29.1391 337.191 28.0183C332.375 24.7857 325.813 26.8193 320.913 29.9179C317.086 32.3374 313.026 36.5541 308.395 37.2016C303.005 37.9558 297.227 35.0624 291.743 35.1745C287.695 35.2586 284.27 37.1748 280.424 38.0345Z" fill="white"/>
</g>
<mask id="mask10_3_540" style="mask-type:luminance" maskUnits="userSpaceOnUse" x="-8" y="-1" width="398" height="269">
<path d="M390 -0.536011H-8V267.464H390V-0.536011Z" fill="white"/>
</mask>
<g mask="url(#mask10_3_540)">
<path d="M131.086 236.872C130.458 236.884 128.04 234.519 127.127 234.18C125.855 233.707 124.156 233.302 122.793 233.642C121.347 234.004 119.968 235.021 118.513 234.7C118.468 232.32 119.045 229.952 118.903 227.575C118.61 222.701 114.032 220.119 110.067 218.356C102.954 215.192 95.065 213.824 87.3136 214.41C84.4671 214.626 81.5643 215.095 78.7916 214.411C76.5888 213.868 74.6285 212.633 72.6183 211.573C65.188 207.655 56.6007 206.01 48.2661 206.909C42.9307 207.484 37.5285 209.185 33.5745 212.848C29.62 216.512 27.4268 222.419 29.1509 227.551C23.7689 225.501 17.9761 226.386 12.7225 228.386C10.7368 229.143 -1.72752 234.295 -0.809994 236.753C-0.551559 237.446 0.218968 237.833 0.951819 237.86C7.75284 238.106 15.1456 237.287 22.084 237.287C32.8619 237.287 43.6402 237.287 54.4181 237.287C67.1445 237.287 79.871 237.287 92.5974 237.287C105.415 237.287 118.282 237.116 131.086 236.872Z" fill="white"/>
<mask id="mask11_3_540" style="mask-type:luminance" maskUnits="userSpaceOnUse" x="-1" y="206" width="133" height="32">
<path d="M131.086 236.872C130.458 236.884 128.04 234.519 127.127 234.18C125.855 233.707 124.156 233.302 122.793 233.642C121.347 234.004 119.968 235.021 118.513 234.7C118.468 232.32 119.045 229.952 118.903 227.575C118.61 222.701 114.032 220.119 110.067 218.356C102.954 215.192 95.065 213.824 87.3136 214.41C84.4671 214.626 81.5643 215.095 78.7916 214.411C76.5888 213.868 74.6285 212.633 72.6183 211.573C65.188 207.655 56.6007 206.01 48.2661 206.909C42.9307 207.484 37.5285 209.185 33.5745 212.848C29.62 216.512 27.4268 222.419 29.1509 227.551C23.7689 225.501 17.9761 226.386 12.7225 228.386C10.7368 229.143 -1.72752 234.295 -0.809994 236.753C-0.551559 237.446 0.218968 237.833 0.951819 237.86C7.75284 238.106 15.1456 237.287 22.084 237.287C32.8619 237.287 43.6402 237.287 54.4181 237.287C67.1445 237.287 79.871 237.287 92.5974 237.287C105.415 237.287 118.282 237.116 131.086 236.872Z" fill="white"/>
</mask>
<g mask="url(#mask11_3_540)">
<path d="M127.301 247.273C129.812 247.111 132.056 245.411 131.566 242.557C131.029 239.431 127.413 235.861 124.329 235.477C121.12 235.077 118.145 237.375 114.914 236.176C111.903 235.06 109.553 231.985 106.558 231.251C102.227 230.19 98.0675 233.121 93.7495 231.858C89.5281 230.622 87.6776 227.081 82.6368 227.3C79.0527 227.456 75.6421 228.818 72.3106 230.163C70.1258 225.135 64.5283 222.184 59.0927 222.133C55.8933 222.103 52.7576 222.953 49.8676 224.302C47.7874 225.273 44.2187 226.412 42.5073 227.744C40.3087 229.454 38.1102 231.165 35.9116 232.875C34.8869 233.672 33.8054 234.496 32.5297 234.708C31.1409 234.939 29.7548 234.412 28.3899 234.065C24.152 232.987 19.6944 233.626 15.3711 234.271C14.6929 234.372 13.9961 234.479 13.4029 234.827C12.8016 235.179 12.3569 235.75 11.9913 236.348C7.3851 243.876 17.5819 243.862 22.4603 244.122C33.2901 244.699 44.1056 246.011 54.9344 246.711C76.6164 248.112 98.3706 248.71 120.082 247.676C122.49 247.562 124.896 247.428 127.301 247.273Z" fill="white"/>
</g>
<mask id="mask12_3_540" style="mask-type:luminance" maskUnits="userSpaceOnUse" x="-1" y="206" width="133" height="32">
<path d="M131.086 236.872C130.458 236.884 128.04 234.519 127.127 234.18C125.855 233.707 124.156 233.302 122.793 233.642C121.347 234.004 119.968 235.021 118.513 234.7C118.468 232.32 119.045 229.952 118.903 227.575C118.61 222.701 114.032 220.119 110.067 218.356C102.954 215.192 95.065 213.824 87.3136 214.41C84.4671 214.626 81.5643 215.095 78.7916 214.411C76.5888 213.868 74.6285 212.633 72.6183 211.573C65.188 207.655 56.6007 206.01 48.2661 206.909C42.9307 207.484 37.5285 209.185 33.5745 212.848C29.62 216.512 27.4268 222.419 29.1509 227.551C23.7689 225.501 17.9761 226.386 12.7225 228.386C10.7368 229.143 -1.72752 234.295 -0.809994 236.753C-0.551559 237.446 0.218968 237.833 0.951819 237.86C7.75284 238.106 15.1456 237.287 22.084 237.287C32.8619 237.287 43.6402 237.287 54.4181 237.287C67.1445 237.287 79.871 237.287 92.5974 237.287C105.415 237.287 118.282 237.116 131.086 236.872Z" fill="white"/>
</mask>
<g mask="url(#mask12_3_540)">
<path d="M72.414 224.823C72.5403 224.966 72.6725 225.08 72.8115 225.158C72.9765 225.251 73.1835 225.204 73.3581 225.13C74.378 224.7 75.1045 223.785 76.143 223.397C77.3795 222.934 78.7661 223.2 80.0509 223.195C81.9989 223.187 84.2564 223.389 86.1275 223.961C86.3026 223.774 86.3095 223.472 86.2039 223.238C86.0983 223.004 85.9015 222.826 85.6982 222.671C84.8152 221.999 83.1377 221.915 82.1157 222.317C82.8538 218.216 78.2699 220.945 76.671 220.292C75.6007 219.854 75.8379 218.196 75.2096 217.324C73.6139 215.111 71.236 216.472 69.1122 216.831C67.3939 217.121 64.7194 216.352 63.5392 218.083C64.6276 218.018 65.855 218.484 66.8962 218.81C68.2717 219.24 69.3876 219.759 70.2765 220.933C71.1744 222.118 71.4121 223.694 72.414 224.823Z" fill="white"/>
</g>
</g>
<mask id="mask13_3_540" style="mask-type:luminance" maskUnits="userSpaceOnUse" x="-8" y="-1" width="398" height="269">
<path d="M390 -0.536011H-8V267.464H390V-0.536011Z" fill="white"/>
</mask>
<g mask="url(#mask13_3_540)">
<path d="M399.021 232.088C398.292 231.522 397.562 230.956 396.832 230.39C398.663 230.407 400.493 230.424 402.323 230.441C402.116 227.129 402.234 218.793 399.148 216.599C396.871 214.979 393.965 216.754 391.308 216.649C381.811 216.273 373.862 211.113 363.916 212.945C357.552 214.118 351.589 217.404 347.17 222.176C344.974 219.171 340.857 218.172 337.19 218.652C333.523 219.131 330.141 220.827 326.747 222.308C312.496 228.524 296.736 230.48 281.213 230.48H406.461" fill="white"/>
<path d="M402.323 230.441C402.171 228.012 402.193 222.882 400.998 219.453C397.108 219.494 393.221 219.689 389.361 219.991C383.927 220.417 378.514 221.087 373.138 221.997C368.247 222.824 363.572 223.545 359.168 225.914C355.064 228.121 351.677 229.26 347.187 227.467C342.735 225.689 338.143 225.139 333.364 225.36C325.159 225.738 317.268 228.277 309.372 230.48H396.949C396.91 230.45 396.871 230.42 396.832 230.39C398.663 230.407 400.493 230.424 402.323 230.441Z" fill="white"/>
</g>
<mask id="mask14_3_540" style="mask-type:luminance" maskUnits="userSpaceOnUse" x="-8" y="-1" width="398" height="269">
<path d="M390 -0.536011H-8V267.464H390V-0.536011Z" fill="white"/>
</mask>
<g mask="url(#mask14_3_540)">
<path d="M79.0548 135.14C56.7764 135.383 34.5048 135.608 12.1956 135.608C1.30206 135.608 -9.59093 135.608 -20.4839 135.608C-29.838 135.608 -43.9176 139.359 -40.7389 125.009C-39.7392 120.493 -38.1504 115.534 -34.1019 113.37C-31.9097 112.198 -29.3328 112.06 -26.8525 112.065C-19.5144 112.079 -12.1795 113.135 -5.12909 115.19C0.216318 99.7453 17.7092 95.609 31.4476 90.7657C44.9818 85.9937 63.9658 88.4914 70.5339 103.184C72.3456 107.236 72.9177 111.773 72.7224 116.215C72.6465 117.941 72.6216 120.021 74.0559 120.962C75.0027 121.582 76.2402 121.431 77.3429 121.189C83.5087 119.832 89 116.419 94.7487 113.791C100.497 111.163 107.055 109.288 113.072 111.21C119.088 113.132 123.78 120.159 121.273 126.007C127.917 123.111 140.197 121.247 147.275 123.419C150.584 124.435 157.34 134.536 158.635 134.536C158.535 134.536 158.436 134.536 158.336 134.536C131.852 134.536 105.449 134.851 79.0548 135.14Z" fill="white"/>
<mask id="mask15_3_540" style="mask-type:luminance" maskUnits="userSpaceOnUse" x="-42" y="88" width="201" height="49">
<path d="M79.0548 135.14C56.7764 135.383 34.5048 135.608 12.1956 135.608C1.30206 135.608 -9.59093 135.608 -20.4839 135.608C-29.838 135.608 -43.9176 139.359 -40.7389 125.009C-39.7392 120.493 -38.1504 115.534 -34.1019 113.37C-31.9097 112.198 -29.3328 112.06 -26.8525 112.065C-19.5144 112.079 -12.1795 113.135 -5.12909 115.19C0.216318 99.7453 17.7092 95.609 31.4476 90.7657C44.9818 85.9937 63.9658 88.4914 70.5339 103.184C72.3456 107.236 72.9177 111.773 72.7224 116.215C72.6465 117.941 72.6216 120.021 74.0559 120.962C75.0027 121.582 76.2402 121.431 77.3429 121.189C83.5087 119.832 89 116.419 94.7487 113.791C100.497 111.163 107.055 109.288 113.072 111.21C119.088 113.132 123.78 120.159 121.273 126.007C127.917 123.111 140.197 121.247 147.275 123.419C150.584 124.435 157.34 134.536 158.635 134.536C158.535 134.536 158.436 134.536 158.336 134.536C131.852 134.536 105.449 134.851 79.0548 135.14Z" fill="white"/>
</mask>
<g mask="url(#mask15_3_540)">
<path d="M140.109 130.498C126.777 127.939 112.937 128.108 99.6701 130.992C101.535 128.324 99.4759 124.343 96.492 123.085C93.5075 121.827 90.1118 122.461 86.9437 123.114C79.3016 124.69 71.6594 126.265 64.0173 127.84C63.3481 127.978 62.6572 128.116 61.987 127.982C60.4013 127.665 59.5103 126.015 58.6809 124.614C42.4648 97.2009 17.5224 116.788 -1.0021 129.01C-6.18193 132.427 -11.616 135.449 -17.2336 138.068H115.697C127.091 138.068 138.467 138.974 149.849 139.47C150.992 134.616 144.961 131.429 140.109 130.498Z" fill="white"/>
</g>
<path d="M54.8145 113.07C56.8719 115.438 58.5976 118.162 60.2358 120.696C60.5292 121.15 60.9654 121.658 61.4892 121.542C61.8777 121.456 62.1069 121.057 62.2613 120.687C63.3364 118.112 63.0096 114.99 61.425 112.698C59.8404 110.407 57.0502 109.022 54.2859 109.156C54.556 106.84 54.2217 104.455 53.3254 102.306C52.7958 101.037 52.0025 99.7839 50.7628 99.2098C49.4553 98.6042 47.876 98.9327 46.7542 99.7855C45.3118 100.882 45.6244 102.657 44.58 103.805C43.4524 105.044 42.0541 104.147 40.5427 103.916C38.5034 103.603 36.4173 103.592 34.3753 103.891C34.0495 103.939 33.7077 104.002 33.4573 104.218C33.2073 104.434 33.0996 104.854 33.3198 105.102C33.4445 105.242 33.6382 105.294 33.8208 105.336C35.6351 105.76 37.4988 105.967 39.3609 105.951C42.5672 105.923 44.847 106.526 47.7969 107.732C50.5808 108.869 52.8489 110.807 54.8145 113.07Z" fill="white"/>
</g>
</g>
<defs>
<linearGradient id="paint0_linear_3_540" x1="191.3" y1="-85.2157" x2="190.739" y2="316.785" gradientUnits="userSpaceOnUse">
<stop offset="0.367" stop-color="#843434"/>
<stop offset="0.489583" stop-color="#843434"/>
<stop offset="0.760417" stop-color="#EADCDC"/>
<stop offset="0.78135" stop-color="#F5E9E9"/>
<stop offset="0.854067" stop-color="white"/>
<stop offset="0.854167" stop-color="white"/>
<stop offset="0.9999" stop-color="white"/>
<stop offset="1" stop-color="white"/>
</linearGradient>
<clipPath id="clip0_3_540">
<rect width="398" height="268" fill="white" transform="translate(-8)"/>
</clipPath>
</defs>
</svg>
