<svg width="38" height="36" viewBox="0 0 38 36" fill="none" xmlns="http://www.w3.org/2000/svg">
<path fill-rule="evenodd" clip-rule="evenodd" d="M25.7336 8.96353C25.0912 8.86409 24.4335 8.89438 23.8046 9.05237C22.9599 9.26455 22.0917 8.79462 21.8654 8.00276C21.6391 7.21089 22.1404 6.39695 22.985 6.18477C24.0493 5.91742 25.1623 5.86616 26.2494 6.03443C27.3365 6.2027 28.3728 6.58662 29.289 7.16052C30.2051 7.73442 30.9801 8.48507 31.5619 9.36229C32.1438 10.2395 32.5192 11.2231 32.663 12.2472C32.8068 13.2714 32.7157 14.3125 32.3959 15.301C32.076 16.2895 31.5348 17.2026 30.8083 17.9793C30.5942 18.2081 30.3656 18.4235 30.1238 18.6244C31.2049 19.1338 32.2028 19.8054 33.0744 20.6226C33.4609 20.985 33.817 21.3707 34.141 21.7762C34.8672 22.6851 35.2091 23.6981 35.1489 24.7203C35.0896 25.7269 34.648 26.6281 34.0166 27.3556C32.7742 28.7873 30.691 29.6875 28.507 29.6875H26.7478C25.8733 29.6875 25.1644 29.0229 25.1644 28.2031C25.1644 27.3833 25.8733 26.7187 26.7478 26.7187H28.507C29.8209 26.7187 30.9695 26.1627 31.5602 25.482C31.8454 25.1534 31.9707 24.8343 31.9871 24.5567C32.0025 24.2947 31.9288 23.9594 31.6065 23.556C31.3723 23.2628 31.1148 22.9839 30.8352 22.7218C29.2846 21.2681 27.1814 20.4514 24.9885 20.4514C24.114 20.4514 23.4052 19.7868 23.4052 18.967C23.4052 18.1472 24.114 17.4826 24.9885 17.4826C25.6396 17.4826 26.2832 17.3523 26.8762 17.1004C27.4693 16.8485 27.9981 16.4808 28.4274 16.0218C28.8567 15.5629 29.1766 15.0234 29.3656 14.4392C29.5546 13.8551 29.6084 13.2399 29.5234 12.6347C29.4384 12.0295 29.2166 11.4483 28.8728 10.93C28.529 10.4116 28.071 9.96806 27.5297 9.62894C26.9883 9.28982 26.376 9.06296 25.7336 8.96353ZM13.0185 8.90625C10.4923 8.90625 8.44438 10.8261 8.44438 13.1944C8.44438 15.5627 10.4923 17.4826 13.0185 17.4826C15.5447 17.4826 17.5925 15.5628 17.5925 13.1944C17.5925 10.8261 15.5446 8.90625 13.0185 8.90625ZM18.1539 18.6245C19.7521 17.2951 20.7592 15.355 20.7592 13.1944C20.7592 9.18655 17.2936 5.9375 13.0185 5.9375C8.74336 5.9375 5.27772 9.18655 5.27772 13.1944C5.27772 15.355 6.28488 17.2951 7.88306 18.6245C6.802 19.1339 5.80419 19.8055 4.93259 20.6226C4.54605 20.985 4.18998 21.3707 3.86598 21.7762C3.13982 22.6851 2.79788 23.6981 2.85809 24.7203C2.91737 25.7269 3.35901 26.6281 3.99038 27.3556C5.2328 28.7873 7.31603 29.6875 9.49997 29.6875H16.537C18.721 29.6875 20.8042 28.7873 22.0466 27.3556C22.678 26.6281 23.1196 25.7269 23.1789 24.7203C23.2391 23.6981 22.8972 22.6851 22.171 21.7762C21.847 21.3707 21.4909 20.985 21.1044 20.6226C20.2328 19.8055 19.235 19.1339 18.1539 18.6245ZM13.0185 20.4514C10.8255 20.4514 8.72241 21.2681 7.17176 22.7218C6.89216 22.9839 6.63471 23.2628 6.40049 23.556C6.07818 23.9594 6.00451 24.2947 6.01994 24.5567C6.03629 24.8343 6.16156 25.1534 6.44677 25.482C7.0375 26.1627 8.18611 26.7187 9.49997 26.7187H16.537C17.8509 26.7187 18.9995 26.1627 19.5902 25.482C19.8754 25.1534 20.0007 24.8343 20.017 24.5567C20.0325 24.2947 19.9588 23.9594 19.6365 23.556C19.4023 23.2628 19.1448 22.9839 18.8652 22.7218C17.3146 21.2681 15.2114 20.4514 13.0185 20.4514Z" fill="white"/>
</svg>
