<svg width="390" height="259" viewBox="0 0 390 259" fill="none" xmlns="http://www.w3.org/2000/svg">
<path d="M0.484863 261.278V224.181H3.02017V220.187H11.2933V224.181H14.6292V220.098H19.433V217.258H27.5727V220.098H28.9071V224.181H31.4424V231.458H34.7783V234.298H36.7799V250.273H39.1817V240.599H40.3827V237.848H45.8536V240.156H47.188V238.114H49.4564V236.694H54.527V240.511H57.0624V232.168H66.0027V239.268H67.4705V214.063H69.6055V206.874H74.1424V214.063H75.8771V250.184H77.6117V224.979H79.213V221.518H85.618V224.891H88.0199V219.477L89.2208 218.678L90.7553 219.699V224.891H92.4233V232.346H95.2255V235.452H97.3605V232.523H100.83V230.393H109.103V251.427H113.773V249.741H117.91V247.611H124.982V250.273H128.451V257.373H132.855V250.362H139.126V248.054H142.729V242.818H152.47V229.683H154.739V228.263H158.875V226.044H161.944V224.358L164.213 223.471L165.68 224.358V222.494L167.282 221.429L169.283 222.583V244.948H171.819V237.404H180.892V240.422H182.894V238.292H188.231V234.032H199.574V230.304H211.583V234.121H214.519V230.216L216.52 229.239L218.388 230.216V231.724H224.927V234.209H226.261V250.096H229.063V219.654H231.599V217.436H230.531V213.708L232.933 212.643L235.201 213.708V217.436H234.134V219.566H237.47V215.838H244.942V219.566H246.81V220.808H245.876V253.113H247.611V240.511H258.686V238.114H263.624V240.422H264.825V241.576H264.024V257.994H266.559V240.333H277.234V238.292H282.305V240.422H286.441V222.317H288.043V219.033H290.178V216.548L291.779 215.483L293.447 216.593V218.501H296.049V222.317H301.92V240.511V251.782H312.729V209.981H314.597V208.694H318.466V203.857H320.601V201.017L322.203 199.952L324.138 201.239V203.857H326.072V208.694H328.207V225.867H333.678V219.566H335.146V215.483H341.551V219.388H343.553V213.087L345.02 212.111L346.555 213.131V219.122H348.623V231.636H351.159V234.298H359.031V225.246H367.438V220.808H377.98V224.181H380.782V243.883H382.65V218.856H388.655V214.773H395.06V218.589V261.278C395.06 261.278 0.484863 261.189 0.484863 261.278Z" fill="#843434"/>
</svg>
