<svg width="35" height="35" viewBox="0 0 35 35" fill="none" xmlns="http://www.w3.org/2000/svg">
<path fill-rule="evenodd" clip-rule="evenodd" d="M16.4689 3.34382C17.0384 2.77431 17.9618 2.77431 18.5313 3.34382L21.8751 6.68763V5.83335C21.8751 5.02794 22.528 4.37502 23.3334 4.37502H27.7084C28.5138 4.37502 29.1667 5.02794 29.1667 5.83335V13.9793L31.6563 16.4688C32.2258 17.0383 32.2258 17.9617 31.6563 18.5312C31.0868 19.1007 30.1634 19.1007 29.5939 18.5312L29.1667 18.1041V27.7084C29.1667 30.1246 27.208 32.0834 24.7917 32.0834H10.2084C7.79217 32.0834 5.83341 30.1246 5.83341 27.7084V18.1041L5.40628 18.5312C4.83676 19.1007 3.9134 19.1007 3.34388 18.5312C2.77437 17.9617 2.77437 17.0383 3.34388 16.4688L6.26003 13.5527C6.26038 13.5523 6.26072 13.552 6.26107 13.5516L16.4689 3.34382ZM8.75008 15.1874V27.7084C8.75008 28.5138 9.403 29.1667 10.2084 29.1667H24.7917C25.5972 29.1667 26.2501 28.5138 26.2501 27.7084V15.1874L22.3024 11.2397C22.3023 11.2396 22.3022 11.2395 22.302 11.2394L17.5001 6.43741L8.75008 15.1874ZM24.7917 9.60429L26.2501 11.0626V7.29169H24.7917V9.60429Z" fill="white"/>
</svg>
